<svg width="159" height="99" viewBox="0 0 159 99" fill="none" xmlns="http://www.w3.org/2000/svg">
<rect width="158.5" height="98.54" rx="8" fill="#131022"/>
<rect x="0.5" y="0.5" width="157.5" height="97.54" rx="7.5" stroke="white" stroke-opacity="0.15"/>
<g clip-path="url(#clip0_20005129_707)">
<g clip-path="url(#clip1_20005129_707)">
<path d="M78.9755 55.1257H74.3093V42.5911H78.9755V55.1257ZM74.7668 54.6683H78.5181V43.0486H74.7668V54.6683ZM85.4716 55.1257H80.8969V42.5911H90.5037C91.8761 42.4996 93.2485 42.8656 94.3464 43.689C94.7927 44.1459 95.1633 44.6709 95.4443 45.2444C95.7188 45.8849 95.8103 46.5253 95.7188 47.1658C95.8103 48.2637 95.4444 49.3616 94.7124 50.2766C93.889 51.283 92.5166 51.7405 90.5952 51.7405H85.563L85.4716 55.1257ZM81.3544 54.6683H85.0141V51.283H85.2886H90.5952C92.3336 51.283 93.706 50.8255 94.4379 50.0021C95.0784 49.1787 95.3529 48.2637 95.3529 47.2573C95.4443 46.7083 95.3529 46.0679 95.1699 45.5189C94.9869 44.97 94.6209 44.5125 94.1634 44.055C93.157 43.3231 91.8761 42.9571 90.5952 43.0486H81.4458L81.3544 54.6683ZM89.4973 48.9042H85.0141V45.5189H89.5888C89.9547 45.5189 90.2292 45.5189 90.5037 45.6104C90.7782 45.7019 91.0527 45.8849 91.3271 46.1594C91.5101 46.4339 91.6016 46.7998 91.6016 47.2573C91.6016 47.6233 91.5101 47.8977 91.4186 48.2637C91.2356 48.5382 90.9612 48.7212 90.5952 48.8127C90.2292 48.9042 89.8632 48.9957 89.4973 48.9042ZM85.4716 48.4467H89.4973C90.2292 48.4467 90.6867 48.2637 90.9612 47.9892C91.0527 47.7148 91.1441 47.5318 91.1441 47.2573C91.1441 46.9828 91.1442 46.7083 90.9612 46.4339C90.7782 46.0679 90.3207 45.9764 89.5888 45.9764H85.4716V48.4467ZM104.045 55.3087C99.9275 55.3087 97.4572 54.3023 96.5423 52.1979C96.3593 51.832 96.2678 51.3745 96.2678 50.917V50.6426H101.117V50.8255C101.117 51.0085 101.208 51.1915 101.391 51.3745C101.574 51.649 102.215 52.015 104.411 52.015C106.973 52.015 106.973 51.5575 106.973 51.283C106.973 50.917 106.698 50.734 104.594 50.5511H104.228L101.94 50.3681C98.0977 50.0021 96.3593 48.8127 96.3593 46.5253C96.3593 44.055 99.2871 42.4996 103.77 42.4996C107.43 42.4996 109.809 43.5061 110.815 45.4274C111.09 45.8849 111.181 46.3424 111.273 46.8913V47.1658H106.424V46.9828C106.424 46.7998 106.332 46.7083 106.241 46.5253C106.058 46.2509 105.509 45.8849 103.679 45.8849C101.483 45.8849 101.208 46.1594 101.208 46.4339C101.208 46.7998 101.94 46.9828 104.136 47.2573L107.064 47.5318C110.266 47.8978 111.73 49.0872 111.73 51.283C111.639 53.0214 110.358 55.3087 104.045 55.3087ZM96.7253 51.1C96.8167 51.3745 96.8167 51.7405 96.9997 52.015C97.8232 53.9363 100.202 54.8513 104.045 54.8513C107.339 54.8513 111.181 54.2108 111.181 51.1C111.181 49.0872 109.9 48.0807 106.973 47.8063C106.424 47.7148 104.96 47.6233 104.045 47.5318C101.666 47.2573 100.659 47.1658 100.659 46.2509C100.659 45.3359 101.666 45.2444 103.587 45.2444C105.143 45.2444 106.058 45.5189 106.515 46.0679C106.607 46.1594 106.698 46.3424 106.79 46.5253H110.724C110.632 46.1594 110.541 45.7934 110.358 45.5189C109.443 43.7805 107.247 42.8656 103.679 42.8656C99.4701 42.8656 96.7253 44.238 96.7253 46.4339C96.7253 48.5382 98.2806 49.5446 101.849 49.8191C102.306 49.8191 103.313 49.9106 104.136 50.0021H104.502C106.424 50.1851 107.339 50.3681 107.339 51.1915C107.339 52.1979 106.241 52.3809 104.319 52.3809C102.581 52.3809 101.391 52.1065 101.025 51.5575C100.934 51.3745 100.751 51.1915 100.751 51.0085H96.7253V51.1ZM120.331 55.3087C115.573 55.3087 112.92 53.3874 112.92 49.9106V42.6826H117.586V49.9106C117.586 51.1 118.684 51.832 120.514 51.832C122.343 51.832 123.441 51.1 123.441 49.9106V42.6826H128.016V50.1851C128.016 53.3874 125.18 55.3087 120.331 55.3087ZM113.377 43.0486V49.8191C113.377 54.1193 117.769 54.7598 120.331 54.7598C122.984 54.7598 127.559 54.1193 127.559 50.1851V43.0486H123.899V49.8191C123.899 51.1915 122.618 52.1979 120.514 52.1979C118.409 52.1979 117.128 51.283 117.128 49.8191V43.0486H113.377ZM147.413 55.1257H143.021V49.4531L140.551 55.1257H136.708L134.238 49.4531V55.1257H129.846V42.5911H135.61L138.629 49.4531L141.74 42.5911H147.321L147.413 55.1257ZM143.478 54.6683H146.955V43.0486H142.106L138.629 50.6426L135.336 43.0486H130.303V54.6683H133.78V47.2573L136.982 54.6683H140.185L143.387 47.2573L143.478 54.6683ZM15.296 42.7741H11.0873V54.8513H22.6155V51.649H15.296V42.7741ZM31.0329 42.4996C25.7263 42.4996 22.89 45.0615 22.89 48.7212C22.89 52.9299 25.8178 55.0342 31.0329 55.0342C36.7055 55.0342 39.1758 52.5639 39.1758 48.7212C39.0844 44.8785 36.431 42.4996 31.0329 42.4996ZM31.0329 45.7019C31.3989 45.7019 31.7649 45.7019 32.1308 45.7934L27.4647 50.4596C27.2817 50.0021 27.0987 49.4531 27.1902 48.9042C27.0987 46.8913 28.0136 45.7019 31.0329 45.7019ZM31.0329 52.015C30.667 52.015 30.301 52.015 30.0265 51.9235L34.6927 47.2573C34.8757 47.7148 34.9671 48.2637 34.9671 48.8127C34.9671 50.6426 34.0522 51.9235 31.0329 52.015ZM47.4103 50.3681H51.7105C51.619 50.6426 51.5275 50.917 51.3445 51.1915C50.4295 51.9235 49.3316 52.2894 48.1422 52.1979C47.5932 52.2894 46.9528 52.1979 46.4038 52.015C45.8549 51.832 45.3974 51.5575 44.9399 51.1C44.4825 50.4596 44.2995 49.7276 44.391 48.9042C44.2995 48.0807 44.574 47.2573 45.0314 46.6168C45.6719 45.9764 46.6783 45.6104 48.1422 45.6104C49.0571 45.5189 50.0636 45.7934 50.7955 46.3424C51.07 46.5253 51.253 46.7998 51.3445 47.0743H55.2787C55.2787 46.6168 55.0957 46.0679 54.9127 45.6104C53.9978 43.689 51.7105 42.4996 47.9592 42.4996C44.6655 42.4996 42.4696 43.5061 41.2802 44.97C40.4568 46.0679 40.0908 47.3488 40.0908 48.7212C39.9993 50.0936 40.4568 51.466 41.1887 52.5639C42.3781 54.1193 44.4825 54.8513 47.1358 54.8513C48.8742 54.9428 50.521 54.4853 51.8934 53.4789L51.9849 54.6683H55.2787V47.5318H47.2273V50.3681H47.4103ZM64.794 42.4996C59.4874 42.4996 56.6511 45.0615 56.6511 48.7212C56.6511 52.9299 59.5789 55.0342 64.794 55.0342C70.4666 55.0342 72.9369 52.5639 72.9369 48.7212C72.8455 44.8785 70.1921 42.4996 64.794 42.4996ZM64.794 45.7019C65.16 45.7019 65.526 45.7019 65.8919 45.7934L61.2258 50.4596C61.0428 50.0021 60.9513 49.4531 60.9513 48.9042C60.8598 46.8913 61.7747 45.7019 64.794 45.7019ZM64.794 51.9235C64.4281 51.9235 64.0621 51.9235 63.6961 51.832L68.3623 47.1658C68.5453 47.6233 68.7282 48.1722 68.6368 48.7212C68.7282 50.6426 67.8133 51.9235 64.794 51.9235Z" fill="#B4B7C9"/>
</g>
</g>
<defs>
<clipPath id="clip0_20005129_707">
<rect width="140.9" height="32.94" fill="white" transform="translate(8.8 32.8)"/>
</clipPath>
<clipPath id="clip1_20005129_707">
<rect width="140.9" height="32.94" fill="white" transform="translate(8.8 32.8)"/>
</clipPath>
</defs>
</svg>
