<svg width="159" height="99" viewBox="0 0 159 99" fill="none" xmlns="http://www.w3.org/2000/svg">
<rect width="158.5" height="98.54" rx="8" fill="#131022"/>
<rect x="0.5" y="0.5" width="157.5" height="97.54" rx="7.5" stroke="white" stroke-opacity="0.15"/>
<g clip-path="url(#clip0_20005129_697)">
<g clip-path="url(#clip1_20005129_697)">
<path d="M27.9221 60.9813H51.3445V37.559H27.9221V60.9813ZM46.9528 46.9828H42.0121V42.0421H46.9528V46.9828ZM32.4968 42.0421H37.4374V51.5575H46.9528V56.4981H32.4968V42.0421ZM66.7154 37.559C64.428 37.559 62.1407 38.2909 60.2193 39.5718C58.298 40.8527 56.7426 42.6826 55.9191 44.8784C55.0042 46.9828 54.8212 49.3616 55.2787 51.649C55.7361 53.9363 56.8341 56.0406 58.481 57.6875C60.1278 59.3344 62.2322 60.4323 64.5195 60.8898C66.8069 61.3473 69.1857 61.0728 71.29 60.2493C73.4172 59.3255 75.252 57.8387 76.5967 55.9492C77.8776 54.0278 78.6095 51.7405 78.6095 49.4531C78.6095 46.3423 77.3286 43.3231 75.1328 41.1272C72.8454 38.7484 69.8261 37.559 66.7154 37.559ZM66.7154 56.4981C65.2515 56.4981 63.8791 56.0406 62.6897 55.3087C61.5002 54.4853 60.5853 53.3873 60.0363 52.1064C59.4874 50.8255 59.3044 49.3616 59.6704 47.8977C59.9448 46.5253 60.6768 45.2444 61.6832 44.238C62.6897 43.2316 63.9706 42.4996 65.343 42.2251C66.7154 41.9506 68.1793 42.1336 69.5517 42.5911C70.8326 43.1401 72.022 44.055 72.7539 45.2444C73.5774 46.4338 73.9433 47.8062 73.9433 49.2701C73.9433 51.1915 73.2114 53.0214 71.839 54.3938C70.4666 55.7662 68.6367 56.4981 66.7154 56.4981ZM120.422 37.559C118.135 37.559 115.847 38.2909 113.926 39.5718C112.005 40.8527 110.449 42.6826 109.626 44.8784C108.711 46.9828 108.528 49.3616 108.985 51.649C109.443 53.9363 110.541 56.0406 112.188 57.6875C113.835 59.3344 115.939 60.4323 118.226 60.8898C120.514 61.3473 122.892 61.0728 124.997 60.2493C127.124 59.3255 128.959 57.8387 130.303 55.9492C131.584 54.0278 132.316 51.7405 132.316 49.4531C132.316 46.3423 131.035 43.3231 128.839 41.1272C126.552 38.7484 123.533 37.559 120.422 37.559ZM120.422 56.4981C118.958 56.4981 117.586 56.0406 116.396 55.3087C115.207 54.4853 114.292 53.3873 113.743 52.1064C113.194 50.8255 113.011 49.3616 113.377 47.8977C113.652 46.5253 114.383 45.2444 115.39 44.238C116.396 43.2316 117.677 42.4996 119.05 42.2251C120.422 41.9506 121.886 42.1336 123.258 42.5911C124.539 43.1401 125.729 44.055 126.461 45.2444C127.284 46.4338 127.65 47.8062 127.65 49.2701C127.65 51.1915 126.918 53.0214 125.546 54.3938C124.173 55.7662 122.343 56.4981 120.422 56.4981ZM93.6144 37.559C91.3271 37.559 89.0398 38.2909 87.1184 39.5718C85.1971 40.8527 83.6417 42.6826 82.8182 44.8784C81.9033 46.9828 81.7203 49.3616 82.1778 51.649C82.6352 53.9363 83.7332 56.0406 85.38 57.6875C87.0269 59.3344 89.1313 60.4323 91.4186 60.8898C93.7059 61.3473 96.0848 61.0728 98.1891 60.2493C100.316 59.3255 102.151 57.8387 103.496 55.9492C104.777 54.0278 105.509 51.7405 105.509 49.4531C105.509 46.3423 104.228 43.3231 102.032 41.1272C99.653 38.7484 96.7252 37.559 93.6144 37.559ZM93.6144 56.4981C92.2421 56.4981 90.9611 56.1321 89.8632 55.4002C88.7653 54.6682 87.8504 53.7533 87.2099 52.5639C86.5695 51.3745 86.295 50.0936 86.478 48.7212C86.5695 47.4403 87.0269 46.1593 87.8504 45.0614C88.6738 43.9635 89.6802 43.1401 90.9611 42.5911C92.1506 42.0421 93.523 41.9506 94.8039 42.1336C96.0848 42.3166 97.3657 42.8656 98.3721 43.7805C99.3785 44.604 100.11 45.7934 100.568 46.9828H93.7059V51.466H100.568C100.11 52.9299 99.1956 54.1193 97.9146 55.0342C96.5423 56.0406 95.0783 56.4981 93.6144 56.4981Z" fill="#B4B7C9"/>
</g>
</g>
<defs>
<clipPath id="clip0_20005129_697">
<rect width="140.9" height="32.94" fill="white" transform="translate(8.79999 32.8)"/>
</clipPath>
<clipPath id="clip1_20005129_697">
<rect width="140.9" height="32.94" fill="white" transform="translate(8.79999 32.8)"/>
</clipPath>
</defs>
</svg>
