<svg width="159" height="99" viewBox="0 0 159 99" fill="none" xmlns="http://www.w3.org/2000/svg">
<rect x="0.5" width="158.5" height="98.54" rx="8" fill="#131022"/>
<rect x="1" y="0.5" width="157.5" height="97.54" rx="7.5" stroke="white" stroke-opacity="0.15"/>
<g clip-path="url(#clip0_20005129_702)">
<g clip-path="url(#clip1_20005129_702)">
<path d="M36.1991 47.8061C35.8331 48.1721 35.5586 48.5381 35.3756 48.9956C35.1926 49.453 35.1926 49.9105 35.1926 50.4595C35.2841 51.0084 35.1926 51.6489 35.0097 52.1978C34.8267 52.7468 34.4607 53.2043 34.0947 53.6617C33.7287 54.0277 33.1798 54.3937 32.6308 54.5767C32.0819 54.7597 31.5329 54.8511 30.8924 54.7597C30.1605 54.6682 29.52 54.8511 28.8796 55.2171C28.2391 55.5831 27.7817 56.0406 27.5072 56.681C27.2377 57.3154 27.1429 58.0104 27.2327 58.6939C27.3242 59.3343 27.6902 59.9748 28.1476 60.5237C28.6051 60.9812 29.2456 61.3472 29.9775 61.4387C30.6609 61.5285 31.3559 61.4337 31.9904 61.1642C32.6308 60.8897 33.1798 60.4323 33.4543 59.7918C33.7287 59.1513 33.9117 58.5109 33.9117 57.7789C33.8202 57.23 33.9117 56.5895 34.0947 56.0406C34.2777 55.4916 34.6437 55.0341 35.0097 54.5767C35.3756 54.2107 35.9246 53.8447 36.4736 53.6617C37.0225 53.4787 37.5715 53.3873 38.2119 53.4787C38.7609 53.5702 39.3099 53.4787 39.8588 53.2043C40.4078 53.0213 40.8652 52.6553 41.1397 52.1978C41.5057 51.7404 41.6887 51.1914 41.7802 50.6424C41.8717 50.0935 41.7802 49.5445 41.5972 48.9956C41.4142 48.4466 41.0482 47.9891 40.6823 47.6232C40.2248 47.2572 39.7673 46.9827 39.2184 46.8912C38.6694 46.7997 38.1204 46.7997 37.5715 46.9827C37.114 47.0742 36.6565 47.3487 36.1991 47.8061ZM29.4286 52.5638C29.886 52.5638 30.435 52.5638 30.8924 52.3808C31.3499 52.1978 31.8074 51.9234 32.0819 51.5574C32.4478 51.1914 32.7223 50.8254 32.9053 50.368C33.0883 49.9105 33.0883 49.453 33.0883 48.9041C32.9968 48.3551 33.0883 47.7147 33.2713 47.1657C33.4543 46.6167 33.8202 46.1593 34.1862 45.7018C34.5522 45.3358 35.1011 44.9698 35.6501 44.7869C36.1991 44.6039 36.748 44.5124 37.3885 44.6039C38.1204 44.6954 38.7609 44.5124 39.4013 44.1464C40.0418 43.7804 40.4993 43.323 40.7737 42.6825C41.0433 42.0481 41.1381 41.3531 41.0482 40.6697C40.9567 40.0292 40.5908 39.3887 40.1333 38.8398C39.6758 38.3823 39.0354 38.0163 38.3034 37.9248C37.62 37.835 36.925 37.9298 36.2906 38.1993C35.6501 38.4738 35.1011 38.9313 34.8267 39.5717C34.4607 40.2122 34.3692 40.8526 34.3692 41.5846C34.4607 42.1335 34.3692 42.774 34.1862 43.323C34.0032 43.8719 33.6373 44.3294 33.2713 44.7869C32.9053 45.1528 32.3563 45.5188 31.8074 45.7018C31.2584 45.8848 30.7095 45.9763 30.069 45.8848C29.6115 45.7933 29.0626 45.8848 28.6051 46.0678C28.1476 46.2508 27.6902 46.5252 27.4157 46.8912C27.0497 47.2572 26.7752 47.6232 26.5923 48.0806C26.4093 48.5381 26.4093 48.9956 26.4093 49.5445C26.5008 50.0935 26.4093 50.7339 26.2263 51.2829C26.0433 51.8319 25.6773 52.2893 25.3113 52.7468C24.9454 53.1128 24.3964 53.4787 23.8474 53.6617C23.2985 53.7532 22.658 53.8447 22.1091 53.8447C21.3771 53.7532 20.7367 53.9362 20.0962 54.3022C19.4558 54.6682 18.9983 55.1256 18.7238 55.7661C18.4543 56.4005 18.3595 57.0955 18.4493 57.7789C18.5408 58.4194 18.9068 59.0598 19.3643 59.6088C19.8217 60.0663 20.4622 60.4323 21.1941 60.5237C21.8776 60.6136 22.5726 60.5188 23.207 60.2493C23.8474 59.9748 24.3964 59.5173 24.6709 58.8769C25.0369 58.2364 25.1284 57.596 25.1284 56.864C25.0369 56.315 25.1284 55.6746 25.3113 55.1256C25.4943 54.5767 25.8603 54.1192 26.2263 53.6617C26.5923 53.2958 27.1412 52.9298 27.6902 52.7468L29.4286 52.5638ZM23.2985 50.7339C23.6645 50.368 23.9389 50.002 24.0304 49.5445C24.1219 49.0871 24.2134 48.6296 24.2134 48.0806C24.1219 47.5317 24.2134 46.8912 24.3964 46.3422C24.5794 45.7933 24.9454 45.3358 25.3113 44.8784C25.6773 44.5124 26.2263 44.1464 26.7752 43.9634C27.3242 43.7804 27.8732 43.6889 28.5136 43.7804C29.2456 43.8719 29.886 43.6889 30.5265 43.323C31.1669 42.957 31.6244 42.4995 31.8989 41.8591C32.1684 41.2246 32.2632 40.5296 32.1734 39.8462C32.0819 39.2058 31.7159 38.5653 31.2584 38.0163C30.801 37.5589 30.1605 37.1929 29.4286 37.1014C28.7451 37.0116 28.0501 37.1064 27.4157 37.3759C26.7752 37.6504 26.2263 38.1078 25.9518 38.7483C25.5858 39.3887 25.4943 40.0292 25.4943 40.7611C25.5858 41.3101 25.4943 41.9506 25.3113 42.4995C25.1284 43.0485 24.7624 43.506 24.3964 43.9634C24.0304 44.3294 23.4815 44.6954 22.9325 44.8784C22.3836 45.0613 21.8346 45.1528 21.1941 45.0613C20.6452 44.9698 20.0962 45.0613 19.5473 45.3358C18.9983 45.5188 18.5408 45.8848 18.2663 46.3422C17.9004 46.7997 17.7174 47.3487 17.6259 47.8976C17.5344 48.4466 17.6259 48.9956 17.8089 49.5445C17.9919 50.0935 18.3578 50.551 18.7238 50.9169C19.1813 51.2829 19.6387 51.5574 20.1877 51.6489C20.7367 51.7404 21.2856 51.7404 21.8346 51.5574C22.475 51.4659 22.9325 51.1914 23.2985 50.7339ZM51.6615 41.6761H54.4063V54.9426H51.6615V41.6761ZM55.9617 50.368C55.9617 49.453 56.2362 48.4466 56.7851 47.7147C57.3341 46.8912 58.066 46.3422 58.981 45.9763C59.8959 45.6103 60.8108 45.5188 61.7258 45.7018C62.6407 45.8848 63.5556 46.3422 64.1961 46.9827C64.8365 47.6232 65.294 48.5381 65.477 49.453C65.66 50.368 65.5685 51.3744 65.2025 52.1978C64.8365 53.1128 64.1961 53.8447 63.4641 54.3937C62.6811 54.9255 61.7574 55.2122 60.8108 55.2171C60.1704 55.2171 59.5299 55.1256 58.981 54.8511C58.432 54.5767 57.883 54.3022 57.4256 53.8447C56.9681 53.3873 56.6021 52.8383 56.4191 52.2893C56.1147 51.6948 55.9578 51.0358 55.9617 50.368ZM62.8237 50.368C62.8237 50.002 62.6407 49.5445 62.4577 49.27C62.1832 48.9041 61.9087 48.7211 61.5428 48.5381C61.1768 48.3551 60.7193 48.3551 60.3534 48.4466C59.9874 48.5381 59.6214 48.7211 59.3469 48.9956C59.0724 49.27 58.8895 49.636 58.798 50.0935C58.7065 50.4595 58.798 50.9169 58.8895 51.2829C59.0724 51.6489 59.3469 52.0148 59.6214 52.1978C59.9874 52.3808 60.3534 52.5638 60.8108 52.5638C61.0853 52.5638 61.3598 52.5638 61.6343 52.3808C61.9087 52.2893 62.0917 52.1063 62.3662 51.9234C62.5492 51.7404 62.7322 51.4659 62.8237 51.1914V50.368ZM76.3647 45.7933V54.3937C76.3647 57.413 73.9859 58.6939 71.6071 58.6939C70.7836 58.7854 69.8687 58.6024 69.1367 58.2364C68.4048 57.8704 67.7643 57.23 67.3069 56.498L69.5942 55.1256C69.7772 55.4916 70.0517 55.8576 70.4176 56.0406C70.7893 56.2179 71.1953 56.3116 71.6071 56.315C71.8815 56.315 72.156 56.315 72.4305 56.2235C72.705 56.1321 72.888 56.0406 73.1625 55.8576C73.3445 55.6669 73.4986 55.4512 73.6199 55.2171C73.7114 54.9426 73.7114 54.6682 73.7114 54.3937V53.5702C73.3997 53.9719 72.9902 54.2869 72.522 54.4852C72.0645 54.6682 71.6071 54.7597 71.0581 54.7597C69.8687 54.7597 68.7708 54.2107 67.8558 53.3873C67.0324 52.5638 66.5749 51.3744 66.5749 50.185C66.5749 48.9956 67.0324 47.8061 67.8558 46.9827C68.6793 46.1593 69.7772 45.6103 71.0581 45.6103C71.5586 45.6126 72.0546 45.7056 72.522 45.8848C72.9795 46.0678 73.3454 46.4337 73.7114 46.7997V45.8848L76.3647 45.7933ZM73.7114 50.185C73.7114 49.7275 73.6199 49.27 73.3454 48.9041C73.071 48.5381 72.7965 48.2636 72.339 48.0806C71.9438 47.8803 71.4936 47.816 71.0581 47.8976C70.6006 47.9891 70.2347 48.1721 69.8687 48.4466C69.5942 48.7211 69.3197 49.1785 69.2282 49.5445C69.1367 50.002 69.1367 50.4595 69.3197 50.8254C69.5027 51.1914 69.7772 51.5574 70.1432 51.8319C70.5091 52.1063 70.9666 52.1978 71.3326 52.1978C71.6071 52.1978 71.8815 52.1978 72.156 52.1063C72.4305 52.0148 72.705 51.8319 72.888 51.6489C73.071 51.4659 73.2539 51.1914 73.3454 50.9169C73.7114 50.7339 73.7114 50.4595 73.7114 50.185ZM77.9201 50.368C77.9201 49.453 78.1946 48.4466 78.7436 47.7147C79.2925 46.8912 80.0245 46.3422 80.9394 45.9763C81.8543 45.6103 82.7693 45.5188 83.6842 45.7018C84.5991 45.8848 85.5141 46.3422 86.1545 46.9827C86.795 47.6232 87.2524 48.5381 87.4354 49.453C87.6184 50.368 87.5269 51.3744 87.161 52.1978C86.795 53.1128 86.1545 53.8447 85.4226 54.3937C84.6395 54.9255 83.7159 55.2122 82.7693 55.2171C82.1288 55.2171 81.4884 55.1256 80.9394 54.8511C80.3904 54.5767 79.8415 54.3022 79.384 53.8447C78.9265 53.3873 78.5606 52.8383 78.3776 52.2893C78.0732 51.6948 77.9163 51.0358 77.9201 50.368ZM84.7821 50.368C84.7821 50.002 84.5991 49.5445 84.4161 49.27C84.1417 48.9041 83.8672 48.7211 83.5012 48.5381C83.1352 48.3551 82.6778 48.3551 82.3118 48.4466C81.9458 48.5381 81.5798 48.7211 81.2139 48.9956C80.9394 49.27 80.7564 49.636 80.6649 50.0935C80.5734 50.4595 80.6649 50.9169 80.7564 51.2829C80.8479 51.6489 81.2139 52.0148 81.4884 52.1978C81.8543 52.3808 82.2203 52.5638 82.6778 52.5638C82.9522 52.5638 83.2267 52.5638 83.5012 52.3808C83.7757 52.2893 83.9587 52.1063 84.2332 51.9234C84.4162 51.7404 84.5991 51.4659 84.6906 51.1914C84.7821 50.9169 84.7821 50.6424 84.7821 50.368ZM88.8078 43.4145C88.8005 43.0882 88.8966 42.7679 89.0823 42.4995C89.2653 42.225 89.5398 42.0421 89.8143 41.8591C90.0887 41.7676 90.4547 41.6761 90.7292 41.7676C91.0037 41.8591 91.3697 41.9506 91.5526 42.225C91.7356 42.408 91.9186 42.774 92.0101 43.0485C92.1016 43.323 92.0101 43.6889 91.9186 43.9634C91.8271 44.2379 91.5526 44.5124 91.2782 44.6954C91.0098 44.8811 90.6895 44.9772 90.3632 44.9698C89.9058 44.9698 89.5398 44.7869 89.1738 44.5124C88.9908 44.2379 88.8078 43.7804 88.8078 43.4145ZM89.0823 45.7933H91.8271V54.8511H89.0823V45.7933ZM103.538 50.368C103.538 51.0084 103.447 51.5574 103.264 52.1063C103.081 52.6553 102.715 53.2043 102.349 53.6617C101.983 54.1192 101.434 54.4852 100.885 54.7597C100.336 55.0341 99.7871 55.1256 99.1466 55.2171C98.5976 55.2171 98.1402 55.1256 97.6827 54.9426C97.2252 54.7597 96.7678 54.4852 96.4933 54.1192V58.6024H93.7485V45.7933H96.4933V46.6167C96.8593 46.2508 97.2252 45.9763 97.6827 45.7933C98.1501 45.6141 98.6461 45.5212 99.1466 45.5188C99.7871 45.5188 100.336 45.7018 100.885 45.9763C101.434 46.2508 101.891 46.6167 102.349 47.0742C102.715 47.5317 103.081 48.0806 103.264 48.6296C103.447 49.1785 103.538 49.7275 103.538 50.368ZM100.793 50.368C100.793 49.9105 100.61 49.5445 100.428 49.1785C100.153 48.8126 99.8786 48.5381 99.4211 48.4466C99.0551 48.2636 98.5976 48.2636 98.1402 48.3551C97.6827 48.4466 97.3167 48.6296 97.0423 48.9956C96.7678 49.27 96.5848 49.7275 96.4933 50.0935C96.4018 50.551 96.4933 50.9169 96.5848 51.3744C96.7678 51.7404 97.0423 52.1063 97.4082 52.2893C97.7742 52.5638 98.1402 52.6553 98.5976 52.6553C98.8721 52.6553 99.1466 52.6553 99.4211 52.4723C99.6956 52.3808 99.97 52.1978 100.153 52.0148C100.336 51.8319 100.519 51.5574 100.611 51.2829C100.793 50.9169 100.793 50.6424 100.793 50.368ZM111.864 52.1063C111.864 54.2107 110.034 55.0341 108.113 55.0341C107.29 55.1256 106.558 54.9426 105.826 54.5767C105.094 54.2107 104.545 53.5702 104.179 52.9298L106.558 51.5574C106.649 51.9234 106.832 52.1978 107.107 52.3808C107.381 52.5546 107.697 52.6496 108.021 52.6553C108.662 52.6553 109.028 52.4723 109.028 52.1063C109.028 51.0999 104.545 51.6489 104.545 48.5381C104.545 46.5252 106.192 45.6103 108.113 45.6103C108.845 45.6103 109.485 45.7933 110.126 46.0678C110.741 46.4088 111.249 46.916 111.59 47.5317L109.302 48.8126C109.211 48.5381 109.028 48.3551 108.845 48.2636C108.662 48.1721 108.387 48.0806 108.113 48.0806C107.656 48.0806 107.381 48.2636 107.381 48.6296C107.473 49.453 111.864 48.8126 111.864 52.1063ZM121.837 45.7933V54.8511H119.092V54.0277C118.818 54.3937 118.36 54.6682 117.903 54.8511C117.445 55.0341 116.988 55.1256 116.439 55.1256C114.609 55.1256 113.054 53.8447 113.054 51.3744V45.7933H115.798V50.9169C115.798 51.0999 115.798 51.3744 115.89 51.5574C115.981 51.7404 116.073 51.9234 116.256 52.1063C116.439 52.2893 116.622 52.3808 116.805 52.4723C116.988 52.5638 117.262 52.5638 117.445 52.5638C118.452 52.5638 119.092 52.0148 119.092 50.7339V45.7933H121.837ZM137.391 49.27V54.8511H134.646V49.5445C134.646 48.6296 134.189 48.0806 133.365 48.0806C132.45 48.0806 131.993 48.7211 131.993 49.819V54.9426H129.248V49.636C129.248 48.7211 128.79 48.1721 127.967 48.1721C127.052 48.1721 126.595 48.8126 126.595 49.9105V55.0341H123.85V45.9763H126.595V46.7997C126.877 46.4281 127.257 46.1429 127.693 45.9763C128.15 45.7933 128.608 45.7018 129.065 45.7018C129.522 45.7018 129.98 45.7933 130.437 45.9763C130.895 46.1593 131.169 46.5252 131.444 46.8912C131.756 46.4896 132.165 46.1746 132.633 45.9763C133.101 45.7971 133.597 45.7041 134.097 45.7018C136.018 45.5188 137.391 47.0742 137.391 49.27ZM139.678 45.7018C140.211 45.697 140.72 45.4834 141.096 45.107C141.473 44.7305 141.686 44.2213 141.691 43.6889C141.686 43.1566 141.473 42.6474 141.096 42.2709C140.72 41.8945 140.211 41.6809 139.678 41.6761C139.146 41.6809 138.637 41.8945 138.26 42.2709C137.884 42.6474 137.67 43.1566 137.665 43.6889C137.665 44.8784 138.58 45.7018 139.678 45.7018Z" fill="#B4B7C9"/>
</g>
</g>
<defs>
<clipPath id="clip0_20005129_702">
<rect width="140.9" height="32.94" fill="white" transform="translate(9.29999 32.8)"/>
</clipPath>
<clipPath id="clip1_20005129_702">
<rect width="140.9" height="32.94" fill="white" transform="translate(9.29999 32.8)"/>
</clipPath>
</defs>
</svg>
