<svg width="159" height="99" viewBox="0 0 159 99" fill="none" xmlns="http://www.w3.org/2000/svg">
<rect x="1" y="0.5" width="157.5" height="97.54" rx="7.5" fill="white"/>
<rect x="1" y="0.5" width="157.5" height="97.54" rx="7.5" stroke="#E2E5F1"/>
<g clip-path="url(#clip0_20005128_14643)">
<g clip-path="url(#clip1_20005128_14643)">
<path d="M32.8138 39.8463V35.9121H20.5537V62.6282H32.8138V58.7855C30.3435 58.7855 27.8732 57.7791 26.1348 56.0407C24.3964 54.3023 23.39 51.832 23.39 49.3617C23.39 46.8913 24.3964 44.421 26.1348 42.6826C27.9647 40.7613 30.3435 39.8463 32.8138 39.8463Z" fill="#B4B7C9"/>
<path d="M32.8138 39.8463V58.7855C35.2842 58.7855 37.7545 57.779 39.4929 56.0407C41.2312 54.3023 42.2377 51.832 42.2377 49.3616C42.2377 46.8913 41.2312 44.421 39.4929 42.6826C37.7545 40.7612 35.3757 39.8463 32.8138 39.8463ZM49.1912 42.2251H51.936V55.4002H49.1912V42.2251ZM53.4914 50.917C53.4914 50.0021 53.7659 48.9957 54.3148 48.2637C54.8638 47.4403 55.5957 46.8913 56.5107 46.5253C57.4256 46.1594 58.3405 46.0679 59.2555 46.2509C60.1704 46.4338 61.0853 46.8913 61.7258 47.5318C62.3662 48.1722 62.8237 49.0872 63.0067 50.0021C63.1897 50.917 63.0982 51.9235 62.7322 52.7469C62.3662 53.6618 61.7258 54.3938 60.9938 54.8513C60.2108 55.3831 59.2871 55.6697 58.3405 55.6747C57.7001 55.6747 57.0596 55.5832 56.5107 55.3087C55.9617 55.0342 55.4127 54.7598 54.9553 54.3023C54.4978 53.8448 54.1318 53.2959 53.9488 52.7469C53.5829 52.1064 53.4914 51.466 53.4914 50.917ZM60.3534 50.917C60.3534 50.5511 60.1704 50.0936 59.9874 49.8191C59.7129 49.4531 59.4385 49.2701 59.0725 49.0872C58.7065 48.9042 58.249 48.9042 57.8831 48.9957C57.5171 49.0872 57.1511 49.2701 56.7851 49.5446C56.5107 49.8191 56.3277 50.1851 56.2362 50.6425C56.1447 51.0085 56.2362 51.466 56.3277 51.832C56.5107 52.1979 56.7851 52.5639 57.0596 52.7469C57.4256 52.9299 57.7916 53.1129 58.249 53.1129C58.5235 53.1129 58.798 53.0214 59.0725 52.9299C59.347 52.8384 59.5299 52.6554 59.7129 52.4724C59.8959 52.2894 60.0789 52.015 60.1704 51.7405C60.3534 51.466 60.3534 51.1915 60.3534 50.917ZM73.8944 46.3424V54.9427C73.8944 57.962 71.5156 59.2429 69.1368 59.2429C68.3133 59.3344 67.3984 59.1514 66.6664 58.7855C65.9345 58.4195 65.294 57.779 64.8366 57.0471L67.1239 55.6747C67.3069 56.0407 67.5814 56.4066 67.9473 56.5896C68.319 56.7669 68.725 56.8606 69.1368 56.8641C69.4112 56.8641 69.6857 56.8641 69.9602 56.7726C70.2347 56.6811 70.4177 56.5896 70.6922 56.4066C70.8751 56.2236 71.0581 56.0407 71.1496 55.7662C71.2411 55.4917 71.3326 55.2172 71.2411 54.9427V54.1193C70.9294 54.5209 70.5199 54.836 70.0517 55.0342C69.5942 55.2172 69.1368 55.3087 68.5878 55.3087C67.3984 55.3087 66.209 54.8512 65.3855 53.9363C64.5621 53.1129 64.0131 51.9235 64.0131 50.734C64.0131 49.5446 64.4706 48.3552 65.3855 47.5318C66.209 46.7083 67.3984 46.1594 68.5878 46.1594C69.0883 46.1617 69.5843 46.2547 70.0517 46.4338C70.5092 46.6168 70.8751 46.9828 71.2411 47.3488V46.4338L73.8944 46.3424ZM71.2411 50.6425C71.2411 50.1851 71.1496 49.7276 70.8751 49.3616C70.6007 48.9957 70.3262 48.7212 69.8687 48.5382C69.4735 48.3379 69.0233 48.2736 68.5878 48.3552C68.1303 48.4467 67.7644 48.6297 67.3984 48.9042C67.1239 49.1787 66.8494 49.6361 66.7579 50.0021C66.6664 50.4596 66.6664 50.917 66.8494 51.283C67.0324 51.649 67.3069 52.0149 67.6729 52.2894C68.0388 52.5639 68.4963 52.6554 68.8623 52.6554C69.1368 52.6554 69.4112 52.6554 69.6857 52.5639C69.9602 52.4724 70.2347 52.2894 70.4177 52.1064C70.6007 51.9235 70.7836 51.649 70.8751 51.3745C71.2411 51.283 71.2411 51.0085 71.2411 50.6425ZM75.4498 50.917C75.4498 50.0021 75.7243 48.9957 76.2733 48.2637C76.8222 47.4403 77.5542 46.8913 78.4691 46.5253C79.384 46.1594 80.299 46.0679 81.2139 46.2509C82.1288 46.4338 83.0438 46.8913 83.6842 47.5318C84.3247 48.1722 84.7822 49.0872 84.9651 50.0021C85.1481 50.917 85.0566 51.9235 84.6907 52.7469C84.3247 53.6618 83.6842 54.3938 82.9523 54.9427C82.1692 55.4746 81.2455 55.7612 80.299 55.7662C79.6585 55.7662 79.0181 55.6747 78.4691 55.4002C77.9201 55.1257 77.3712 54.8512 76.9137 54.3938C76.4562 53.9363 76.0903 53.3874 75.9073 52.8384C75.6029 52.2439 75.446 51.5849 75.4498 50.917ZM82.3118 50.917C82.3118 50.5511 82.1288 50.0936 81.9459 49.7276C81.6714 49.3616 81.3969 49.1787 81.0309 48.9957C80.6649 48.8127 80.2075 48.8127 79.8415 48.9042C79.4755 48.9957 79.1096 49.1787 78.7436 49.4531C78.3776 49.7276 78.2861 50.0936 78.1946 50.5511C78.1031 50.917 78.1946 51.3745 78.2861 51.7405C78.4691 52.1064 78.7436 52.4724 79.0181 52.6554C79.384 52.8384 79.75 53.0214 80.2075 53.0214C80.482 53.0214 80.7564 52.9299 81.0309 52.8384C81.3054 52.7469 81.4884 52.5639 81.6714 52.3809C81.8544 52.1979 82.0373 51.9235 82.1288 51.649C82.3118 51.466 82.3118 51.1915 82.3118 50.917ZM86.246 43.9635C86.2387 43.6372 86.3348 43.317 86.5205 43.0486C86.7035 42.7741 86.978 42.5911 87.2525 42.4081C87.527 42.3166 87.8929 42.2251 88.1674 42.3166C88.4419 42.4081 88.8079 42.4996 88.9909 42.7741C89.1738 42.9571 89.3568 43.3231 89.4483 43.5975C89.5398 43.872 89.4483 44.238 89.3568 44.5125C89.2653 44.787 88.9909 45.0614 88.7164 45.2444C88.448 45.4302 88.1277 45.5263 87.8014 45.5189C87.344 45.5189 86.978 45.3359 86.612 45.0614C86.429 44.787 86.3375 44.3295 86.246 43.9635ZM86.5205 46.3424H89.2653V55.4002H86.5205V46.3424ZM101.068 50.917C101.068 51.5575 100.977 52.1064 100.794 52.6554C100.611 53.2044 100.245 53.7533 99.8786 54.2108C99.5126 54.6683 98.9636 55.0342 98.4147 55.3087C97.8657 55.5832 97.3168 55.6747 96.6763 55.7662C96.1273 55.7662 95.6699 55.6747 95.2124 55.4917C94.7549 55.3087 94.2975 55.0342 93.9315 54.6683V59.1514H91.1867V46.3424H93.9315V47.1658C94.2975 46.7998 94.6634 46.5253 95.2124 46.3424C95.6798 46.1632 96.1758 46.0702 96.6763 46.0679C97.3168 46.0679 97.8657 46.2509 98.4147 46.5253C98.9636 46.7998 99.4211 47.1658 99.8786 47.6233C100.245 48.0807 100.611 48.6297 100.794 49.1787C100.977 49.6361 101.068 50.2766 101.068 50.917ZM98.3232 50.917C98.3232 50.4596 98.1402 50.0936 97.9572 49.7276C97.6827 49.3616 97.4083 49.0872 96.9508 48.9957C96.5848 48.8127 96.1273 48.8127 95.6699 48.9042C95.2124 48.9957 94.8464 49.1787 94.572 49.5446C94.2975 49.8191 94.1145 50.2766 94.023 50.6425C93.9315 51.1 94.023 51.466 94.1145 51.9235C94.2975 52.2894 94.572 52.6554 94.9379 52.8384C95.3039 53.1129 95.6699 53.2044 96.1273 53.2044C96.4018 53.2044 96.6763 53.2044 96.9508 53.0214C97.2253 52.9299 97.4997 52.7469 97.6827 52.5639C97.8657 52.3809 98.0487 52.1064 98.1402 51.832C98.3232 51.466 98.3232 51.1915 98.3232 50.917ZM109.394 52.6554C109.394 54.7598 107.564 55.5832 105.643 55.5832C104.819 55.6747 104.087 55.4917 103.355 55.1257C102.623 54.7598 102.074 54.1193 101.708 53.4788L104.087 52.1064C104.179 52.4724 104.362 52.7469 104.636 52.9299C104.91 53.1037 105.227 53.1987 105.551 53.2044C106.192 53.2044 106.558 53.0214 106.558 52.6554C106.558 51.649 102.074 52.1979 102.074 49.0872C102.074 47.0743 103.721 46.1594 105.643 46.1594C106.375 46.1594 107.107 46.2509 107.747 46.6168C108.387 46.9828 108.936 47.4403 109.302 48.0807L106.924 49.3616C106.832 49.0872 106.649 48.9042 106.466 48.8127C106.283 48.6297 106.009 48.6297 105.734 48.6297C105.277 48.6297 105.002 48.8127 105.002 49.0872C104.911 50.0021 109.394 49.3616 109.394 52.6554ZM119.367 46.3424V55.4002H116.622V54.5768C116.347 54.9427 115.89 55.2172 115.432 55.4917C114.975 55.6747 114.518 55.7662 113.969 55.7662C112.139 55.7662 110.583 54.4853 110.583 52.015V46.4338H113.328V51.5575C113.328 51.7405 113.328 52.015 113.42 52.1979C113.511 52.3809 113.603 52.5639 113.786 52.7469C113.969 52.9299 114.152 53.0214 114.335 53.1129C114.518 53.2044 114.792 53.2044 114.975 53.2044C115.981 53.2044 116.622 52.6554 116.622 51.3745V46.4338H119.367V46.3424ZM134.921 49.8191V55.4002H132.176V50.0936C132.176 49.1787 131.718 48.6297 130.895 48.6297C130.071 48.6297 129.431 49.2701 129.431 50.3681V55.4917H126.686V50.1851C126.686 49.2701 126.229 48.7212 125.405 48.7212C124.582 48.7212 123.941 49.3616 123.941 50.4596V55.5832H121.197V46.5253H123.941V47.3488C124.223 46.9772 124.604 46.6919 125.039 46.5253C125.497 46.3424 125.954 46.2509 126.412 46.2509C126.869 46.2509 127.327 46.3424 127.784 46.5253C128.242 46.7083 128.516 47.0743 128.791 47.4403C129.102 47.0386 129.512 46.7236 129.98 46.5253C130.447 46.3462 130.943 46.2532 131.444 46.2509C133.548 46.0679 134.921 47.6233 134.921 49.8191ZM137.208 46.2509C137.74 46.2461 138.25 46.0325 138.626 45.656C139.002 45.2796 139.216 44.7704 139.221 44.238C139.216 43.7056 139.002 43.1964 138.626 42.82C138.25 42.4435 137.74 42.2299 137.208 42.2251C136.676 42.2299 136.166 42.4435 135.79 42.82C135.413 43.1964 135.2 43.7056 135.195 44.238C135.2 44.7704 135.413 45.2796 135.79 45.656C136.166 46.0325 136.676 46.2461 137.208 46.2509Z" fill="#B4B7C9"/>
</g>
</g>
<defs>
<clipPath id="clip0_20005128_14643">
<rect width="140.9" height="32.94" fill="white" transform="translate(9.29999 32.8)"/>
</clipPath>
<clipPath id="clip1_20005128_14643">
<rect width="140.9" height="32.94" fill="white" transform="translate(9.29999 32.8)"/>
</clipPath>
</defs>
</svg>
